<svg xmlns="http://www.w3.org/2000/svg" version="1.1" xmlns:xlink="http://www.w3.org/1999/xlink" xmlns:svgjs="http://svgjs.dev/svgjs" width="1700" height="810" preserveAspectRatio="none" viewBox="0 0 1700 810"><g mask="url(&quot;#SvgjsMask2061&quot;)" fill="none"><rect width="1700" height="810" x="0" y="0" fill="url(&quot;#SvgjsLinearGradient2062&quot;)"></rect><path d="M187.38 0C196.28 0.39 194.12 7.94 203 8.96C303.43 20.46 305.4 27.99 406 25.03C457.65 23.51 456 6.35 507.5 0C557.5 -6.17 558.25 0 609 0C710.5 0 710.5 0 812 0C913.5 0 913.5 0 1015 0C1116.5 0 1116.5 0 1218 0C1305 0 1310.6 -12.72 1392 0C1412.1 3.14 1408.61 31.72 1421 31.72C1431.29 31.72 1421.07 2.55 1437.37 0C1522.57 -13.31 1530.68 0 1624 0C1725.5 0 1776.25 -50.75 1827 0C1877.75 50.75 1827 101.5 1827 203C1827 280 1870.77 325.39 1827 357C1769.27 398.7 1716.5 331.81 1624 349.61C1589.19 356.31 1597.8 377.45 1572.39 406C1496.3 491.53 1501.57 577.77 1421 577.77C1330.86 577.77 1326.43 491.33 1230.96 406C1224.93 400.61 1224.17 396.33 1218 396.33C1212.7 396.33 1213.28 401.46 1208.02 406C1111.78 489.21 1115 493.96 1015 571.83C984.66 595.46 947.33 584.9 947.33 609C947.33 640.14 972.14 659.35 1015 682.31C1107.48 731.85 1119.26 761.44 1218 754C1322.26 746.15 1314.85 667.39 1421 651.74C1517.85 637.46 1521.46 685.53 1624 694.13C1724.46 702.56 1764.39 649.46 1827 685.81C1865.89 708.39 1865.91 787.81 1827 812C1764.41 850.91 1725.5 812 1624 812C1522.5 812 1522.5 812 1421 812C1319.5 812 1319.5 812 1218 812C1116.5 812 1116.5 812 1015 812C913.5 812 913.5 812 812 812C710.5 812 710.5 812 609 812C507.5 812 507.5 812 406 812C342.26 812 334.57 831.49 278.53 812C233.07 796.19 238.92 741.39 203 741.39C170.52 741.39 182.06 797.97 141.72 812C80.56 833.27 29.13 853.73 0 812C-41.73 752.23 0 710.5 0 609C0 507.5 0 507.5 0 406C0 304.5 0 304.5 0 203C0 101.5 -48.72 52.78 0 0C44.97 -48.72 94.78 -4.09 187.38 0" stroke="" stroke-width="2"></path><path d="M609 91.35C568.48 97.78 592.56 146.8 579.23 203C555.25 304.12 579.93 316.73 534.37 406C493.32 486.43 473.47 477.77 406 542.39C367.49 579.27 322.41 572.7 322.41 609C322.41 650.41 354.12 694.51 406 697.81C497.42 703.62 507.95 663.69 609 627.22C630.98 619.29 635.38 624.95 652.06 609C736.88 527.88 735.19 523.17 812 433.07C821.71 421.67 822.11 420.67 825.1 406C845.54 305.63 863.93 296 858.85 203C857.38 176.05 839 178.16 812 166.09C714.07 122.33 684.86 79.32 609 91.35" stroke="" stroke-width="2"></path><path d="M57.26 0C132.96 31.17 124.1 62.2 203 83.59C298.47 109.47 317.56 60.32 406 94.55C471.84 120.03 500.29 137.69 511.56 203C527.16 293.41 498.15 311.37 459.74 406C445.37 441.41 435.71 437.63 406 463.09C317.29 539.13 312.97 534.47 222.9 609C211.47 618.46 212.76 619.87 203 631.07C124.29 721.37 131.12 736.1 45.96 812C29.62 826.56 4.24 830.74 0 812C-18.74 729.24 0 710.5 0 609C0 507.5 0 507.5 0 406C0 304.5 0 304.5 0 203C0 101.5 -22.33 79.17 0 0C6.3 -22.33 31.46 -10.62 57.26 0" stroke="" stroke-width="2"></path><path d="M812 12.3C800.17 12.3 789.44 3.27 789.44 0C789.44 -2.88 800.72 0 812 0C830.45 0 848.91 -2.99 848.91 0C848.91 3.16 829.91 12.3 812 12.3" stroke="" stroke-width="2"></path><path d="M1040.38 203C1096.57 104.09 1078.07 77.06 1145.5 0C1166.88 -24.44 1181.75 0 1218 0C1232.5 0 1236.74 -9.62 1247 0C1338.24 85.54 1346.64 190.31 1421 190.31C1482.76 190.31 1451.07 63.9 1519.23 0C1552.57 -31.26 1571.61 0 1624 0C1725.5 0 1776.25 -50.75 1827 0C1877.75 50.75 1827 101.5 1827 203C1827 236.25 1852 263.02 1827 269.5C1750.5 289.33 1709.08 221.54 1624 255.63C1538.76 289.79 1554.72 330.4 1486.37 406C1453.22 442.67 1455.79 480.17 1421 480.17C1382.08 480.17 1381.87 440.77 1338.94 406C1280.37 358.57 1275.57 315.78 1218 315.78C1168.51 315.78 1172.78 362.39 1124.82 406C1071.28 454.68 1069.72 500.35 1015 500.35C960.79 500.35 906.95 461.43 906.95 406C906.95 326.11 958.38 315.86 1015 229.71C1025.09 214.36 1031.32 218.94 1040.38 203" stroke="" stroke-width="2"></path><path d="M805.85 609C810.02 607.15 809.06 602.23 812 602.23C814.74 602.23 817.21 604.95 817.21 609C817.21 625.25 814.1 625.85 812 642.83C801.55 727.35 841.02 771.23 792.1 812C739.52 855.82 700.55 812 609 812C507.5 812 507.5 812 406 812C401.28 812 396.56 813.81 396.56 812C396.56 809.58 400.49 806.65 406 803.54C506.71 746.79 505.05 742.85 609 692.28C704.98 645.58 708.52 652.18 805.85 609" stroke="" stroke-width="2"></path><path d="M1384.75 812C1384.75 804.6 1400.66 785.29 1421 785.29C1461.07 785.29 1505.58 805.16 1505.58 812C1505.58 818.52 1463.29 812 1421 812C1402.88 812 1384.75 817.96 1384.75 812" stroke="" stroke-width="2"></path><path d="M0 123.57C73.25 107.41 100.79 148.02 203 158.22C303.79 168.27 310.97 146.41 406 164.07C431.42 168.8 443.89 178.71 443.89 203C443.89 265.84 454.55 320.28 406 338.33C334.11 365.06 292.34 273.45 203 292.56C134.12 307.29 144.61 347.71 89.56 406C43.11 455.18 25.59 507.5 0 507.5C-19.19 507.5 0 456.75 0 406C0 304.5 0 304.5 0 203C0 163.28 -28.25 129.8 0 123.57" stroke="" stroke-width="2"></path><path d="M1167.25 203C1167.25 173.8 1191.03 135.33 1218 135.33C1247.16 135.33 1279.52 174.61 1279.52 203C1279.52 224.56 1248.09 235.22 1218 235.22C1191.95 235.22 1167.25 223.75 1167.25 203" stroke="" stroke-width="2"></path><path d="M1624 78.94C1592.19 60.44 1601.08 30.86 1601.08 0C1601.08 -8.61 1612.54 0 1624 0C1725.5 0 1765.37 -39.87 1827 0C1866.87 25.8 1866.1 116.15 1827 131.35C1764.6 155.62 1705.15 126.12 1624 78.94" stroke="" stroke-width="2"></path><path d="M988.81 406C988.81 386.63 1001.83 363.26 1015 363.26C1028.23 363.26 1041.62 386.67 1041.62 406C1041.62 419.47 1028.26 428.87 1015 428.87C1001.86 428.87 988.81 419.44 988.81 406" stroke="" stroke-width="2"></path><path d="M512.11 812C512.11 797.4 561.45 757.35 609 757.35C651.69 757.35 692.59 797.13 692.59 812C692.59 824.45 650.8 812 609 812C560.56 812 512.11 824.72 512.11 812" stroke="" stroke-width="2"></path></g><defs><mask id="SvgjsMask2061"><rect width="1700" height="810" fill="#ffffff"></rect></mask><linearGradient x1="0%" y1="50%" x2="100%" y2="50%" gradientUnits="userSpaceOnUse" id="SvgjsLinearGradient2062"><stop stop-color="rgba(255, 242, 204, 1)" offset="0.18"></stop><stop stop-color="rgba(255, 217, 102, 1)" offset="0.48"></stop><stop stop-color="rgba(244, 177, 131, 1)" offset="0.77"></stop><stop stop-color="rgba(223, 166, 123, 1)" offset="1"></stop></linearGradient></defs></svg>