<svg xmlns="http://www.w3.org/2000/svg" version="1.1" xmlns:xlink="http://www.w3.org/1999/xlink" xmlns:svgjs="http://svgjs.dev/svgjs" width="1700" height="810" preserveAspectRatio="none" viewBox="0 0 1700 810"><g mask="url(&quot;#SvgjsMask5437&quot;)" fill="none"><rect width="1700" height="810" x="0" y="0" fill="url(&quot;#SvgjsLinearGradient5438&quot;)"></rect><path d="M483 0C506.75 73.62 441.15 113.1 471.48 203C504.15 299.86 548.73 373.52 609 373.52C661.9 373.52 680.06 293.7 697.81 203C716.6 106.94 647.23 61.96 682.08 0C704.32 -39.54 747.04 0 812 0C913.5 0 913.5 0 1015 0C1116.5 0 1116.5 0 1218 0C1319.5 0 1319.5 0 1421 0C1522.5 0 1522.5 0 1624 0C1725.5 0 1776.25 -50.75 1827 0C1877.75 50.75 1827 101.5 1827 203C1827 304.5 1827 304.5 1827 406C1827 507.5 1827 507.5 1827 609C1827 642.84 1836.66 644.94 1827 676.67C1805.77 746.44 1817.29 777.29 1765.22 812C1715.79 844.95 1694.61 812 1624 812C1522.5 812 1522.5 812 1421 812C1319.5 812 1319.5 812 1218 812C1116.5 812 1116.5 812 1015 812C913.5 812 913.5 812 812 812C710.5 812 710.5 812 609 812C507.5 812 507.5 812 406 812C304.5 812 304.5 812 203 812C128.34 812 100.38 850.37 53.67 812C-1.12 766.99 22.23 729.35 0 645.25C-4.6 627.85 0 627.13 0 609C0 507.5 0 507.5 0 406C0 304.5 0 304.5 0 203C0 101.5 -50.75 50.75 0 0C50.75 -50.75 101.5 0 203 0C304.5 0 304.5 0 406 0C444.5 0 474.01 -27.88 483 0" stroke="" stroke-width="2"></path><path d="M1421 153.79C1401.4 153.79 1388.43 172.75 1375.89 203C1336.14 298.85 1301.72 325.94 1316.42 406C1324.27 448.74 1372.73 448.6 1421 448.6C1447.43 448.6 1462.67 434.59 1465.82 406C1476.2 311.79 1465.64 301.86 1448.07 203C1443.23 175.75 1437.49 153.79 1421 153.79" stroke="" stroke-width="2"></path><path d="M1015 549.29C973.5 549.29 926.74 582.04 926.74 609C926.74 633.96 972.62 653.13 1015 653.13C1047.51 653.13 1076.52 633.35 1076.52 609C1076.52 581.43 1048.39 549.29 1015 549.29" stroke="" stroke-width="2"></path><path d="M203 198.39C189.42 212.62 162.4 200.4 162.4 203C162.4 205.61 190.25 193.86 203 208.8C276.91 295.36 335.73 308.68 335.73 406C335.73 498.1 277.62 587.63 203 587.63C115.4 587.63 91.85 504.95 11.28 406C-9.65 380.3 1.9 372.47 0 338.33C-3.74 270.97 0 270.66 0 203C0 101.5 -50.75 50.75 0 0C50.75 -50.75 101.5 0 203 0C279.57 0 356.14 -37.62 356.14 0C356.14 61.57 286.29 111.12 203 198.39" stroke="" stroke-width="2"></path><path d="M803.54 203C796.42 101.3 779.87 89.09 783.58 0C784.1 -12.41 797.79 0 812 0C913.5 0 913.5 0 1015 0C1116.5 0 1116.5 0 1218 0C1319.5 0 1417.41 -43.07 1421 0C1425.87 58.43 1319.91 96.76 1234.92 203C1218.41 223.64 1227.16 228.62 1218 253.75C1190.16 330.12 1211.87 350.54 1160.91 406C1110.37 461 1089.91 474.66 1015 474.66C915.45 474.66 913.5 440.33 812 406C812 406 812 406 812 406C807.77 304.5 810.63 304.3 803.54 203" stroke="" stroke-width="2"></path><path d="M1532.65 203C1503.14 94.8 1396.66 54.1 1421 0C1442.33 -47.4 1522.5 0 1624 0C1725.5 0 1776.25 -50.75 1827 0C1877.75 50.75 1827 101.5 1827 203C1827 304.5 1827 304.5 1827 406C1827 458.12 1861.19 487.66 1827 510.24C1759.69 554.69 1715.55 506.21 1624 540.06C1581.99 555.59 1559.89 569.1 1559.89 609C1559.89 676.65 1590.2 682.93 1624 755.16C1637.7 784.43 1654.89 792.76 1654.89 812C1654.89 821.18 1639.45 812 1624 812C1522.5 812 1522.5 812 1421 812C1319.5 812 1319.5 812 1218 812C1116.5 812 1116.5 812 1015 812C913.5 812 913.5 812 812 812C710.5 812 710.5 812 609 812C507.5 812 507.5 812 406 812C304.5 812 304.5 812 203 812C157.5 812 112 840.27 112 812C112 748.21 129.98 662.26 203 627.88C276.98 593.05 310.96 679.85 406 673.59C454.25 670.41 445.25 637.41 489.59 609C546.75 572.37 551.44 579.76 609 543.52C712.64 478.26 755.27 388.09 812 406C858.98 420.83 767.93 536.8 816.41 609C869.43 687.95 919.65 708.29 1015 708.29C1088.15 708.29 1100.44 671.98 1153.41 609C1201.94 551.29 1160.61 487.86 1218 466.9C1294.4 438.99 1330.6 528.81 1421 511.26C1487.47 498.36 1507.76 472.19 1531.73 406C1563.58 318.06 1558.51 297.8 1532.65 203" stroke="" stroke-width="2"></path><path d="M203 83.05C114.94 108.64 73.43 107.66 0 77.62C-28.07 66.14 -28.08 10.73 0 0C73.42 -28.08 101.5 0 203 0C235.06 0 267.11 -15.75 267.11 0C267.11 25.77 248.5 69.83 203 83.05" stroke="" stroke-width="2"></path><path d="M957.91 203C938.45 103.93 921.45 74.85 942.5 0C950 -26.65 978.75 0 1015 0C1116.5 0 1116.5 0 1218 0C1256.07 0 1294.13 -16.64 1294.13 0C1294.13 24.51 1259.14 44.38 1218 82.3C1149.04 145.88 1126.32 129 1073.94 203C1024.82 272.39 1044.06 369.09 1015 369.09C986.04 369.09 974.7 288.47 957.91 203" stroke="" stroke-width="2"></path><path d="M1617.23 203C1615.36 101.29 1587.26 87.11 1590.17 0C1590.65 -14.39 1607.09 0 1624 0C1725.5 0 1776.25 -50.75 1827 0C1877.75 50.75 1827 101.5 1827 203C1827 217.5 1832.04 218.55 1827 232C1793.98 320.05 1810.66 343.48 1750.88 406C1709.16 449.63 1680.72 444.3 1624 444.3C1604.1 444.3 1598.27 428.4 1597.64 406C1594.88 307.75 1619.09 304.29 1617.23 203" stroke="" stroke-width="2"></path><path d="M152.25 406C152.25 380.42 179.97 353.8 203 353.8C222.91 353.8 238.13 380.24 238.13 406C238.13 430.38 222.75 454.08 203 454.08C179.81 454.08 152.25 430.56 152.25 406" stroke="" stroke-width="2"></path><path d="M1263.11 609C1317.04 563.72 1345.56 573.91 1421 573.91C1449.44 573.91 1460.04 582.02 1470.86 609C1507.8 701.07 1533.62 742.44 1516.53 812C1508.69 843.94 1468.76 812 1421 812C1319.5 812 1319.5 812 1218 812C1116.5 812 1116.5 812 1015 812C913.5 812 913.5 812 812 812C710.5 812 710.5 812 609 812C541.34 812 473.67 837.03 473.67 812C473.67 779.03 530.34 716.23 609 696C699.5 672.73 710.88 708.2 812 725C913.88 741.93 912.83 758.6 1015 763.46C1115.83 768.26 1145.01 789.77 1218 744.33C1269.06 712.54 1215.54 648.93 1263.11 609" stroke="" stroke-width="2"></path><path d="M170.33 812C170.33 789.1 176.39 745.91 203 745.91C251.94 745.91 321.42 794.36 321.42 812C321.42 827.4 262.21 812 203 812C186.67 812 170.33 822.15 170.33 812" stroke="" stroke-width="2"></path></g><defs><mask id="SvgjsMask5437"><rect width="1700" height="810" fill="#ffffff"></rect></mask><linearGradient x1="0%" y1="50%" x2="100%" y2="50%" gradientUnits="userSpaceOnUse" id="SvgjsLinearGradient5438"><stop stop-color="rgba(236, 244, 214, 1)" offset="0.2"></stop><stop stop-color="rgba(154, 208, 194, 1)" offset="0.35"></stop><stop stop-color="rgba(45, 149, 150, 1)" offset="0.62"></stop><stop stop-color="rgba(38, 80, 115, 1)" offset="0.99"></stop></linearGradient></defs></svg>